<?xml version="1.0" encoding="UTF-8" standalone="no"?>
<svg
   xmlns:dc="http://purl.org/dc/elements/1.1/"
   xmlns:cc="http://creativecommons.org/ns#"
   xmlns:rdf="http://www.w3.org/1999/02/22-rdf-syntax-ns#"
   xmlns:svg="http://www.w3.org/2000/svg"
   xmlns="http://www.w3.org/2000/svg"
   xmlns:sodipodi="http://sodipodi.sourceforge.net/DTD/sodipodi-0.dtd"
   xmlns:inkscape="http://www.inkscape.org/namespaces/inkscape"
   width="199px"
   height="76px"
   viewBox="0 0 199 76"
   version="1.1"
   id="svg22"
   sodipodi:docname="logo_alternate.svg"
   inkscape:version="0.92.3 (2405546, 2018-03-11)">
  <metadata
     id="metadata28">
    <rdf:RDF>
      <cc:Work
         rdf:about="">
        <dc:format>image/svg+xml</dc:format>
        <dc:type
           rdf:resource="http://purl.org/dc/dcmitype/StillImage" />
      </cc:Work>
    </rdf:RDF>
  </metadata>
  <defs
     id="defs26" />
  <sodipodi:namedview
     pagecolor="#ffffff"
     bordercolor="#666666"
     borderopacity="1"
     objecttolerance="10"
     gridtolerance="10"
     guidetolerance="10"
     inkscape:pageopacity="0"
     inkscape:pageshadow="2"
     inkscape:window-width="1151"
     inkscape:window-height="1062"
     id="namedview24"
     showgrid="false"
     inkscape:zoom="3.0099717"
     inkscape:cx="96.425382"
     inkscape:cy="87.384993"
     inkscape:window-x="0"
     inkscape:window-y="0"
     inkscape:window-maximized="0"
     inkscape:current-layer="Logo-Copy" />
  <!-- Generator: Sketch 64 (93537) - https://sketch.com -->
  <title
     id="title2">Logo Copy</title>
  <desc
     id="desc4">Created with Sketch.</desc>
  <g
     style="fill:none;fill-rule:evenodd;stroke:none;stroke-width:1"
     transform="translate(-277,-22)"
     id="grid-1366px-copy-7">
    <g
       id="Header">
      <g
         transform="translate(277,22)"
         id="Logo-Copy">
        <path
           style="fill:#e02020"
           inkscape:connector-curvature="0"
           id="Fill-175"
           d="m 36.46469,24.157965 c 5.613517,7.742483 9.793965,16.592173 12.152482,26.158759 0.955862,3.259345 3.546828,4.066759 4.65838,4.265173 0.286758,0.05069 0.561207,-0.129621 0.626379,-0.413483 C 58.888345,32.253828 71.468069,13.225655 88.727897,0 72.39569,10.262483 59.414069,25.368 51.799034,43.303448 47.748931,36.109138 42.556138,29.645483 36.46469,24.157965" />
        <path
           style="fill:#00465c"
           inkscape:connector-curvature="0"
           id="Fill-177"
           d="m 36.932483,32.326386 c 0,-3.486724 -2.826311,-6.323172 -6.313035,-6.323172 -3.068172,0 -5.866241,1.144138 -7.98362,3.042103 v -2.587345 h -7.147966 v 0.672725 H 18.249 l 0.06807,26.07331 h -2.829207 v 0.682862 h 9.872172 l 0.02969,-0.682862 -2.753896,0.0065 V 33.622593 c 0,-3.957414 3.184758,-7.164621 7.141448,-7.164621 1.541689,0 2.768379,1.249862 2.768379,2.791552 v 23.953759 l -2.791552,0.0072 v 0.695173 l 9.939518,-0.01883 V 53.20324 l -2.729276,0.0072 -0.03186,-20.884138" />
        <path
           style="fill:#00465c"
           inkscape:connector-curvature="0"
           id="Fill-179"
           d="m 171.43683,26.005748 c 2.88062,0 5.21524,2.335345 5.21524,5.215966 l -0.008,1.327345 h -3.66631 c 0.15424,-2.470035 -0.73935,-4.515725 -2.29262,-4.893 -1.8929,-0.459104 -4.05011,1.731413 -4.81697,4.893 l -7.2e-4,20.661827 h 2.76113 v 0.676345 h -9.9091 v -0.676345 h 2.76114 V 27.140472 h -2.76114 v -0.677069 h 7.14797 v 3.375207 c 0.85593,-2.241207 3.02689,-3.832862 5.56934,-3.832862" />
        <polygon
           style="fill:#00465c"
           points="3.7256897,20.152976 3.7256897,53.202631 0,53.202631 0,53.886941 11.837483,53.886941 11.837483,53.202631 8.1125172,53.210597 8.1422069,20.152976 11.828069,20.152976 11.828069,19.470114 0,19.470114 0,20.152976 "
           id="Fill-181" />
        <path
           style="fill:#00465c"
           inkscape:connector-curvature="0"
           id="Fill-183"
           d="m 69.687341,31.406369 c 0,-2.732897 2.215862,-4.948035 4.948759,-4.948035 2.732897,0 4.948035,2.215138 4.948035,4.948035 v 6.550552 h -9.896794 z m 0,10.727379 v -3.493965 h 14.287242 v -2.68438 c 0,-5.500551 -4.182621,-9.959069 -9.338483,-9.959069 -5.155862,0 -9.334862,4.458518 -9.334862,9.959069 v 8.398552 c 0,5.500552 4.179,9.959069 9.334862,9.959069 5.057379,0 9.175552,-4.290517 9.331241,-9.646241 h -4.383206 v 4.271689 c 0,2.732897 -2.215138,4.948759 -4.948035,4.948759 -2.732897,0 -4.948759,-2.215862 -4.948759,-4.948759 v -4.271689 z" />
        <path
           style="fill:#00465c"
           inkscape:connector-curvature="0"
           id="Fill-185"
           d="m 184.3861,31.410034 c 0,-2.732896 2.21587,-4.948034 4.94876,-4.948034 2.7329,0 4.94876,2.215138 4.94876,4.948034 v 6.550552 h -9.89752 z m 0,10.72738 v -3.493966 h 14.28724 V 35.959069 C 198.67334,30.458517 194.49072,26 189.33486,26 184.179,26 180,30.458517 180,35.959069 v 8.398552 c 0,5.500551 4.179,9.959069 9.33486,9.959069 5.05738,0 9.17628,-4.290518 9.33124,-9.646242 h -4.38248 v 4.27169 c 0,2.732897 -2.21586,4.948759 -4.94876,4.948759 -2.73289,0 -4.94876,-2.215862 -4.94876,-4.948759 v -4.27169 z" />
        <path
           style="fill:#00465c"
           inkscape:connector-curvature="0"
           id="Fill-187"
           d="m 150.68297,48.931738 c 0,2.736517 -2.21876,4.955276 -4.956,4.955276 -2.73652,0 -4.95528,-2.218759 -4.95528,-4.955276 V 31.413393 c 0,-2.736517 2.21876,-4.955276 4.95528,-4.955276 2.73724,0 4.956,2.218759 4.956,4.955276 z M 145.719,25.994669 c -5.15659,0 -9.33559,4.458517 -9.33559,9.959069 v 8.398552 c 0,5.500551 4.179,9.959069 9.33559,9.959069 5.15586,0 9.33848,-4.458518 9.33848,-9.959069 v -8.398552 c 0,-5.500552 -4.18262,-9.959069 -9.33848,-9.959069 z" />
        <path
           style="fill:#00465c"
           inkscape:connector-curvature="0"
           id="Fill-189"
           d="m 128.3478,39.899131 v 6.976345 c 0,3.871965 -3.13986,7.011827 -7.01255,7.011827 -3.87197,0 -7.01183,-3.139862 -7.01183,-7.011827 V 26.905924 c 0,-3.87269 3.13986,-7.011827 7.01183,-7.011827 3.87269,0 7.01255,3.139137 7.01255,7.011827 v 4.564966 h 4.38393 c -0.0818,-6.642518 -5.15224,-11.998966 -11.39793,-11.998966 -6.29203,0 -11.39721,5.441897 -11.39721,12.159724 v 10.539828 c 0,6.717103 5.10518,12.159724 11.39721,12.159724 6.29638,0 11.40155,-5.442621 11.40155,-12.159724 v -2.272345 z" />
        <path
           style="fill:#00465c"
           inkscape:connector-curvature="0"
           id="Fill-191"
           d="m 87.621414,44.666783 v 2.308552 c 0,4.063137 4.179,7.355793 9.331241,7.355793 5.155865,0 9.334865,-3.292656 9.334865,-7.355793 0,-2.632242 -1.75097,-4.940069 -4.38321,-6.241345 L 95.044552,37.232783 C 93.237103,36.271128 92.006069,34.368817 92.006069,32.1783 v -0.771931 c 0,-2.732897 2.215138,-4.948759 4.948759,-4.948759 2.732896,0 4.948762,2.215862 4.948762,4.948759 v 2.525069 h 4.3832 l 7.3e-4,-0.561207 c 0,-4.062414 -4.179,-7.355793 -9.334865,-7.355793 -5.152241,0 -9.331241,3.293379 -9.331241,7.355793 0,2.619207 1.736483,4.919793 4.350621,6.22469 l 6.81631,3.478758 c 1.848005,0.948621 3.112345,2.87338 3.112345,5.092862 l 0.003,0.771931 c 0,2.732897 -2.215866,4.948759 -4.948762,4.948759 -2.733621,0 -4.948759,-2.215862 -4.948759,-4.948759 l 0.0022,-4.271689 z" />
        <text
           style="font-weight:normal;font-size:14px;font-family:RobotoCondensed-Regular, 'Roboto Condensed';fill:#6d7278"
           font-weight="normal"
           font-style="condensed"
           font-size="14"
           id="Капитал-ҮЦК-ХХК"
           x="-28.903925"
           y="-1.6611453">
          <tspan
             id="tspan15"
             y="71.33886"
             x="61.158573">КАПИТАЛ ҮЦК ХХК</tspan>
        </text>
      </g>
    </g>
  </g>
</svg>
